# xmcd CD database file
#
# Track frame offsets:
#	182
#	26765
#	54885
#	87827
#	113140
#	150135
#	176847
#
# Disc length: 2804 seconds
#
# Revision: 0
# Processed by: cddbd v1.5.1PL2 Copyright (c) Steve Scherf et al.
# Submitted via: CDex 1.51
#
DISCID=470af207
DTITLE=Buck Hill - Scope
DYEAR=1979
DGENRE=Jazz
TTITLE0=Scope
TTITLE1=BalladRepeter
TTITLE2=Little Bossa
TTITLE3=Beast Beautiful
TTITLE4=The Sad Ones
TTITLE5=Funk Dumplin
TTITLE6=Snaps
EXTD=YEAR: 1979
EXTT0=
EXTT1=
EXTT2=
EXTT3=
EXTT4=
EXTT5=
EXTT6=
PLAYORDER=
